# xmcd CD database file
#
# Track frame offsets:
#	150
#	19007
#	41595
#	63402
#	83550
#	103545
#	120765
#	140297
#	167850
#	186490
#	210272
#	231860
#	252755
#	272277
#	294012
#	318465
#
# Disc length: 4535 seconds
#
# Revision: 3
# Processed by: cddbd v1.5.2PL0 Copyright (c) Steve Scherf et al.
# Submitted via: CDex 1.70beta3
#
DISCID=ca11b510
DTITLE=Various Artist - Good-bye Omega Trive 1983-1991 Disc 2
DYEAR=1991
DGENRE=JPop
TTITLE0=1986オメガトライブ - 君は1000%
TTITLE1=1986オメガトライブ - Blue Reef
TTITLE2=1986オメガトライブ - Ipanema Rain
TTITLE3=カルロス・トシキ&オメガトライブ - アクアマリンのままでいて
TTITLE4=カルロス・トシキ&オメガトライブ - 花の降る午後
TTITLE5=カルロス・トシキ&オメガトライブ - Innocent Dreamer
TTITLE6=カルロス・トシキ&オメガトライブ - Down Town Mystery
TTITLE7=カルロス・トシキ&オメガトライブ - REIKO
TTITLE8=カルロス・トシキ&オメガトライブ - ヘミングウェイに逢える海
TTITLE9=カルロス・トシキ&オメガトライブ - Bad Girl
TTITLE10=カルロス・トシキ&オメガトライブ - Don’t Think Bad
TTITLE11=カルロス・トシキ&オメガトライブ - どうして好きといってくれないの
TTITLE12=カルロス・トシキ&オメガトライブ - 君は弱くない
TTITLE13=カルロス・トシキ&オメガトライブ - 1000 Love Song
TTITLE14=カルロス・トシキ&オメガトライブ - Be Yourself
TTITLE15=カルロス・トシキ&オメガトライブ - 時はかげろう
EXTD=YEAR: 1991
EXTT0=
EXTT1=
EXTT2=
EXTT3=
EXTT4=
EXTT5=
EXTT6=
EXTT7=
EXTT8=
EXTT9=
EXTT10=
EXTT11=
EXTT12=
EXTT13=
EXTT14=
EXTT15=
PLAYORDER=
